<?xml version="1.0" encoding="UTF-8"?><svg id="Vrstva_1" xmlns="http://www.w3.org/2000/svg" viewBox="0 0 682.96 516.81"><path d="M2.86,145.73h4.1c12.07,0,16.4-5.01,16.4-15.94V25.05c0-10.93-4.33-15.94-16.4-15.94H2.86V0h71.04c28.92,0,57.84,11.39,57.84,45.77,0,32.11-28.92,45.09-57.84,45.09h-27.78v38.94c0,10.93,4.33,15.94,16.39,15.94h4.1v9.11H2.86v-9.11ZM105.56,45.31c0-25.73-14.8-35.07-40.99-35.07h-18.44v70.36h18.44c25.96,0,40.99-9.79,40.99-35.29Z"/><path d="M136.98,145.73h4.1c10.47,0,14.12-5.69,14.12-18.22v-52.6c0-16.62-4.55-19.58-18.22-17.53v-9.11l31.2-9.79h8.65v18.9c10.47-12.75,23.91-20.95,34.84-20.95,10.25,0,18.22,5.92,18.22,15.94,0,8.88-7.97,14.57-14.8,14.57-10.7,0-12.52-9.56-20.27-9.56-5.24,0-12.07,5.01-17.99,11.61v58.52c0,12.52,4.78,18.22,18.67,18.22h4.1v9.11h-62.62v-9.11Z"/><path d="M228.75,99.05c0-39.17,26.64-62.62,56.24-62.62,19.58,0,49.41,10.25,49.64,45.09v12.75h-82.43c.91,21.4,13.66,42.35,39.17,42.35,12.07,0,29.6-4.55,35.52-24.82h10.02c-3.42,30.06-24.36,47.59-50.78,47.59-35.52,0-57.38-26.64-57.38-60.34ZM310.05,80.61c-.23-18.44-8.65-31.42-26.64-31.42-14.35,0-27.32,9.56-30.51,31.42h57.15Z"/><path d="M360.6,120.91l5.69-63.99h-24.59v-10.47c16.39-8.88,28.69-23.68,33.25-42.13h10.02v36.66h34.61v15.94h-35.29v65.35c0,10.7,7.29,14.8,13.21,14.8,8.65,0,14.12-4.55,16.62-17.99h10.02c-.23,26.19-14.57,38.03-32.79,38.03-19.13,0-32.56-15.48-30.74-36.21Z"/><path d="M444.17,120.91l5.69-63.99h-24.59v-10.47c16.39-8.88,28.69-23.68,33.25-42.13h10.02v36.66h34.61v15.94h-35.29v65.35c0,10.7,7.29,14.8,13.21,14.8,8.65,0,14.12-4.55,16.62-17.99h10.02c-.23,26.19-14.57,38.03-32.79,38.03-19.13,0-32.56-15.48-30.74-36.21Z"/><path d="M509.29,188.54c0-7.29,5.47-12.07,12.07-12.07,11.16,0,14.35,12.98,23.91,12.98,5.01,0,9.79-4.55,16.17-18.67l4.78-10.93-41.9-96.55c-3.87-8.2-9.11-12.98-17.31-13.21v-9.11h55.11v9.11h-.91c-10.02,0-14.12,5.47-9.79,15.03l27.78,64.44,25.96-64.21c3.64-9.11-.23-15.26-10.25-15.26h-3.19v-9.11h43.49v9.11c-7.97,0-13.43,6.15-16.62,13.21l-44.18,104.97c-13.21,30.74-27.32,36.89-41.67,36.89-11.61,0-23.45-6.15-23.45-16.62Z"/><path d="M174.72,308.04l82.2-132.07h9.11l23,132.07c1.82,10.25,4.55,15.94,17.53,15.94l-2.05,9.11h-57.84l2.05-9.11h1.82c11.84,0,17.76-5.01,15.48-15.94l-4.1-23.23h-57.61l-14.35,23.23c-6.6,10.93-2.28,15.94,9.79,15.94h1.82l-2.05,9.11h-51.92l2.05-9.11c14.12,0,19.81-7.51,25.05-15.94ZM259.88,272.29l-10.47-60.8-37.34,60.8h47.82Z"/><path d="M323.64,301.66l30.28-96.09c5.24-16.62-.23-19.58-16.39-17.53l2.5-9.11,38.94-12.07h8.65l-43.49,138.67c-2.96,9.34.46,12.98,5.46,12.98s10.25-3.42,14.35-14.35h10.93c-5.01,21.86-20.27,33.47-34.16,33.47-11.84,0-25.5-9.11-17.08-35.98Z"/><path d="M395.14,301.66l21.4-59.66c2.05-5.46-.46-8.2-3.42-8.2-4.55,0-8.88,4.1-20.49,14.35l-2.5-11.39c6.6-7.51,21.63-22.09,34.61-22.09,8.65,0,20.72,7.51,12.52,30.28l-21.86,60.57c-3.42,9.11.23,12.98,5.24,12.98s10.25-3.42,14.35-14.35h10.93c-5.01,21.86-20.27,33.47-34.16,33.47-11.84,0-26.19-9.56-16.62-35.98ZM423.38,178.93c0-9.56,7.97-17.76,17.53-17.76s17.53,8.2,17.53,17.76-7.97,17.53-17.53,17.53-17.53-7.97-17.53-17.53Z"/><path d="M463.23,300.98c0-23.91,19.36-46.91,36.43-61.25h-37.8l4.33-20.49h53.74v15.94c-19.81,15.48-34.16,36.89-34.16,59.66,0,15.71,8.2,26.87,21.18,26.87,26.19,0,47.82-37.8,47.82-61.71,0-19.81-15.94-20.27-15.94-33.02,0-7.06,6.15-12.3,13.66-12.3,8.65,0,18.9,4.78,18.9,30.28,0,37.34-27.32,92.68-72.18,92.68-19.58,0-35.98-14.35-35.98-36.66Z"/><path d="M579.81,292.33c0-40.53,32.79-77.65,69.68-77.65,20.04,0,33.47,11.61,33.47,26.87,0,33.02-45.09,43.49-79.92,35.52-.23,2.05-.23,3.87-.23,5.92,0,18.22,8.65,32.79,27.1,32.79,10.47,0,27.32-2.96,37.12-25.73h11.61c-12.3,38.48-36.21,47.59-56.02,47.59-26.19,0-42.81-20.27-42.81-45.31ZM659.97,243.82c0-11.16-8.2-14.57-15.03-14.57-19.13,0-34.38,16.62-39.85,36.89,24.14,5.24,54.88-4.55,54.88-22.31Z"/><path d="M35.98,456.46h4.1c12.07,0,16.4-5.01,16.4-15.94v-118.41h-11.61c-12.52,0-28.69.46-35.75,31.88H0l3.64-43.26h128.43l3.64,43.26h-9.11c-7.06-31.42-23.23-31.88-35.75-31.88h-11.61v118.41c0,10.93,4.33,15.94,16.39,15.94h4.1v9.11h-63.76v-9.11Z"/><path d="M143.23,499.27c0-7.29,5.47-12.07,12.07-12.07,11.16,0,14.35,12.98,23.91,12.98,5.01,0,9.79-4.55,16.17-18.67l4.78-10.93-41.9-96.55c-3.87-8.2-9.11-12.98-17.31-13.21v-9.11h55.11v9.11h-.91c-10.02,0-14.12,5.47-9.79,15.03l27.78,64.44,25.96-64.21c3.64-9.11-.23-15.26-10.25-15.26h-3.19v-9.11h43.49v9.11c-7.97,0-13.43,6.15-16.62,13.21l-44.18,104.97c-13.21,30.74-27.32,36.89-41.67,36.89-11.61,0-23.45-6.15-23.45-16.62Z"/><path d="M311.05,461.7v27.78c0,12.52,3.64,18.22,14.12,18.22h4.1v9.11h-58.07v-9.11h4.1c10.47,0,14.12-5.69,14.12-18.22v-103.83c0-16.62-4.55-19.58-18.22-17.53v-9.11l31.2-9.79h8.65v17.76c7.51-9.56,18.67-19.81,34.84-19.81,29.15,0,50.78,23.45,50.78,57.15,0,40.76-30.28,65.81-58.52,65.81-10.25,0-19.58-2.73-27.1-8.42ZM338.15,456.46c23.23,0,34.38-20.04,34.38-46.22,0-23.23-11.61-43.04-35.07-43.04-7.74,0-17.31,3.19-26.41,11.39v50.55c0,17.53,11.16,27.33,27.1,27.33Z"/><path d="M404.19,409.78c0-39.17,26.64-62.62,56.24-62.62,19.58,0,49.41,10.25,49.64,45.09v12.75h-82.43c.91,21.4,13.66,42.35,39.17,42.35,12.07,0,29.6-4.55,35.52-24.82h10.02c-3.42,30.06-24.36,47.59-50.78,47.59-35.52,0-57.38-26.64-57.38-60.34ZM485.48,391.34c-.23-18.44-8.65-31.42-26.64-31.42-14.35,0-27.32,9.56-30.51,31.42h57.15Z"/></svg>